<?xml version="1.0" encoding="UTF-8"?>
<svg id="Layer_2" data-name="Layer 2" xmlns="http://www.w3.org/2000/svg" viewBox="0 0 300 60.67">
  <defs>
    <style>
      .cls-1 {
        fill: #8e672a;
        stroke-width: 0px;
      }
    </style>
  </defs>
  <g id="Layer_1-2" data-name="Layer 1">
    <path class="cls-1" d="M254.78,2.44c-54.16-11.57-100.46,21.34-142.6,29.39-9.32,1.78-16.83,1.54-22.9.21,5.77-3.34,10.54-8.37,10.96-14.9.49-7.65-7.3-12.19-14.06-6.47-.58-5.1-6.06-8.34-10.96-6.14-3.31,1.49-6.63,5.33-8.43,8.4-4.24,7.25-.33,14.01,5.46,18.53-13.43-2.22-23.54-13.63-35.8-18.89-11.07-4.74-22.42-3.67-30.73,5.34-11.78,12.77-3.04,22.33,5.01,21.01,1.7-1.61,3.32-3.28,4.83-5.03C6.89,35.75.22,23.45,7.54,17.55c6.43-5.18,17.46-2.9,24.25.03,15.02,6.47,26.95,21.53,44.77,18.95,1.11-.16,2.28-.4,3.47-.71,41.83,15.64,118.16-54.27,190.77-21.58,7.2,3.24,14.65,7.05,19.59,13.41,4.36,5.61,7.84,15.55,3.47,22.16-4.68,7.06-20.08,7.48-26.79,3.67-2.53-1.44-3.59-3.25-3.96-4.97-1.63,1.01-3.23,2.06-4.8,3.13-.02.84.04,1.64.27,2.35,2.19,7,12.81,7.18,18.71,6.3,26.36-3.9,41.54-44.18-22.52-57.86ZM74.93,8.87c2.14.24,3.56,1.34,5.03,2.79,1.51,1.49,1.84,4.02,1.77,6.09,1.01-1.97,2.92-3.47,5.08-3.97,3.3-.77,6.59.69,8.01,3.74.94,2.03,1.01,4.4.2,6.48-1.54,3.95-5.66,6.06-9.56,7.01-18.03-6.06-19.38-23.16-10.52-22.15Z"/>
  </g>
</svg>